<svg xmlns="http://www.w3.org/2000/svg" xmlns:xlink="http://www.w3.org/1999/xlink" preserveAspectRatio="xMidYMid" width="799.463" height="95.705" viewBox="0 0 1269.19 151.937">
  <defs>
    <style>
      .cls-1 {
        fill: #fff;
        fill-rule: evenodd;
      }
    </style>
  </defs>
  <g>
    <path d="M139.750,61.406 C131.328,61.406 124.500,54.648 124.500,46.312 C124.500,37.976 131.328,31.218 139.750,31.218 C148.172,31.218 155.000,37.976 155.000,46.312 C155.000,54.648 148.172,61.406 139.750,61.406 ZM76.578,39.843 C65.576,39.843 56.656,31.015 56.656,20.125 C56.656,9.234 65.576,0.406 76.578,0.406 C87.581,0.406 96.500,9.234 96.500,20.125 C96.500,31.015 87.581,39.843 76.578,39.843 ZM15.250,61.406 C6.828,61.406 -0.000,54.648 -0.000,46.312 C-0.000,37.976 6.828,31.218 15.250,31.218 C23.672,31.218 30.500,37.976 30.500,46.312 C30.500,54.648 23.672,61.406 15.250,61.406 Z" class="cls-1"/>
    <path d="M880.949,113.477 C880.799,113.477 880.799,113.477 880.650,113.477 C877.518,113.328 872.299,113.328 867.676,113.328 C864.097,113.328 860.965,113.328 859.175,113.477 C852.763,113.775 850.675,109.451 850.675,106.170 C850.675,102.442 853.359,98.713 858.579,98.713 C858.728,98.713 859.026,98.713 859.175,98.713 C859.772,98.713 860.368,98.713 860.965,98.713 C862.904,98.713 863.500,98.266 863.500,95.582 C863.649,88.722 863.799,79.625 863.799,69.335 C863.799,66.949 863.799,64.413 863.799,61.878 C863.799,57.703 863.351,56.062 859.623,56.062 C859.325,56.062 858.877,56.062 858.579,56.062 C858.430,56.062 858.281,56.062 858.132,56.062 C853.509,56.062 851.272,52.334 851.272,48.456 C851.272,44.430 853.658,40.254 858.579,40.254 L863.351,40.254 C874.238,40.403 878.712,45.474 878.712,56.211 C878.712,56.509 878.712,56.659 878.712,56.808 C878.413,77.388 878.115,88.423 878.115,95.880 C878.115,97.073 878.562,98.564 880.650,98.713 C886.168,98.564 889.151,102.143 889.151,106.021 C889.151,109.749 886.466,113.477 880.949,113.477 ZM868.272,20.718 C862.456,20.718 857.833,16.990 857.833,10.130 C857.833,2.823 864.097,-0.011 868.272,-0.011 C873.641,-0.011 878.712,4.463 878.712,10.130 C878.712,15.499 874.685,20.718 868.272,20.718 ZM835.770,55.913 C835.770,55.913 835.621,55.913 835.472,55.913 C835.323,55.913 835.174,55.913 835.174,55.913 C830.849,55.913 830.402,57.553 830.402,76.195 C830.402,83.502 830.551,92.301 830.551,100.801 C830.551,105.573 830.402,110.346 830.402,114.670 C829.954,140.470 810.418,151.953 791.479,151.953 C775.820,151.953 762.100,143.900 762.100,136.742 C762.100,132.417 765.828,128.689 770.004,128.689 C771.644,128.689 773.285,129.285 774.776,130.478 C780.145,134.803 787.154,137.189 793.865,137.189 C805.199,137.189 815.638,130.478 815.787,114.969 L815.936,106.916 C815.936,106.319 815.787,106.170 815.489,106.170 C815.339,106.170 815.190,106.170 814.892,106.468 C809.374,111.389 802.216,114.521 794.014,114.521 C773.732,114.521 758.521,99.012 758.521,77.388 C758.521,57.703 771.048,39.658 794.610,39.658 C802.663,39.658 811.760,43.386 816.383,49.053 C816.682,49.500 816.980,49.799 817.278,49.799 C817.576,49.799 817.726,49.500 817.875,49.053 C819.217,45.176 822.945,40.553 832.191,40.553 C838.753,40.553 842.034,42.939 842.034,48.606 C842.034,52.334 839.797,55.913 835.770,55.913 ZM794.759,53.527 C790.584,53.527 773.434,55.913 773.434,77.388 C773.434,92.002 782.829,100.950 794.312,100.950 C805.944,100.950 815.787,91.853 815.787,77.089 C815.787,62.475 806.541,53.527 794.759,53.527 ZM740.481,113.477 C740.332,113.477 740.332,113.477 740.183,113.477 C737.051,113.328 731.831,113.328 727.208,113.328 C723.629,113.328 720.497,113.328 718.708,113.477 C712.295,113.775 710.208,109.451 710.208,106.170 C710.208,102.442 712.892,98.713 718.111,98.713 C718.261,98.713 718.559,98.713 718.708,98.713 C719.304,98.713 719.901,98.713 720.497,98.713 C722.436,98.713 723.033,98.266 723.033,95.582 C723.182,88.722 723.331,79.625 723.331,69.335 C723.331,66.949 723.331,64.413 723.331,61.878 C723.331,57.703 722.884,56.062 719.155,56.062 C718.857,56.062 718.410,56.062 718.111,56.062 C717.962,56.062 717.813,56.062 717.664,56.062 C713.041,56.062 710.804,52.334 710.804,48.456 C710.804,44.430 713.190,40.254 718.111,40.254 L722.884,40.254 C733.770,40.403 738.244,45.474 738.244,56.211 C738.244,56.509 738.244,56.659 738.244,56.808 C737.946,77.388 737.648,88.423 737.648,95.880 C737.648,97.073 738.095,98.564 740.183,98.713 C745.701,98.564 748.683,102.143 748.683,106.021 C748.683,109.749 745.999,113.477 740.481,113.477 ZM727.805,20.718 C721.989,20.718 717.366,16.990 717.366,10.130 C717.366,2.823 723.629,-0.011 727.805,-0.011 C733.174,-0.011 738.244,4.463 738.244,10.130 C738.244,15.499 734.217,20.718 727.805,20.718 ZM688.742,113.477 C685.013,113.477 680.390,112.582 678.004,108.258 C672.636,112.582 664.732,114.969 657.126,114.969 C640.722,114.969 631.028,103.038 631.028,91.555 C631.028,83.949 635.502,76.344 645.494,72.914 C655.784,69.335 668.609,66.501 670.995,66.352 C672.487,66.203 673.680,64.413 673.680,61.282 C673.680,59.492 673.232,51.886 663.091,51.886 C656.380,51.886 651.310,55.018 648.477,58.150 C646.836,60.089 644.748,60.834 642.959,60.834 C639.081,60.834 635.800,57.852 635.800,53.974 C635.800,46.816 648.924,38.912 663.986,38.912 C680.540,38.912 689.338,46.965 689.338,64.115 C689.338,65.905 689.189,67.843 689.040,69.931 C688.742,72.168 688.294,83.949 688.294,91.257 C688.294,96.775 688.593,98.266 691.128,98.266 C695.900,98.415 698.137,101.845 698.137,105.275 C698.137,113.477 690.233,113.477 688.742,113.477 ZM672.337,78.879 L672.188,78.879 C646.985,82.011 645.494,88.274 645.494,91.853 C645.494,96.476 649.520,101.099 657.126,101.099 C669.206,101.099 674.425,94.985 674.425,84.397 C674.425,82.160 674.127,78.879 672.337,78.879 ZM612.397,113.328 C612.248,113.328 611.950,113.328 611.801,113.328 C607.923,113.179 603.599,113.030 599.423,113.030 C594.353,113.030 589.431,113.179 585.852,113.328 C585.703,113.328 585.554,113.328 585.256,113.328 C580.334,113.328 578.097,110.047 578.097,106.617 C578.097,103.635 579.887,100.503 582.720,99.608 C584.063,99.161 585.256,98.564 585.256,97.819 C585.256,97.520 585.106,97.222 584.808,96.775 C576.009,87.230 563.184,73.809 556.324,65.905 C554.087,63.519 552.447,62.773 549.912,62.773 C548.570,62.773 547.376,62.922 546.183,62.922 C544.990,62.922 543.052,63.220 543.052,65.756 C542.903,69.335 542.753,75.598 542.753,83.651 C542.753,87.230 542.753,91.108 542.903,95.432 C542.903,97.222 543.797,98.117 547.376,98.117 C552.596,97.968 556.473,100.801 556.473,105.872 C556.473,109.600 553.789,113.328 548.271,113.328 C548.122,113.328 547.824,113.328 547.675,113.328 C543.797,113.179 539.622,113.030 535.595,113.030 C530.674,113.030 526.051,113.179 522.472,113.328 C522.323,113.328 522.024,113.328 521.875,113.328 C516.357,113.328 513.673,109.600 513.673,105.722 C513.673,101.845 516.507,98.117 521.875,98.117 C522.024,98.117 522.323,98.117 522.472,98.117 C522.919,98.117 523.367,98.117 523.814,98.117 C525.603,98.117 526.946,97.669 526.946,95.134 C527.095,81.563 527.244,66.650 527.244,52.334 C527.244,40.702 527.095,29.368 526.946,19.823 C526.946,16.841 525.902,16.393 523.665,16.393 C523.367,16.393 522.919,16.393 522.472,16.393 C513.673,16.841 513.524,8.937 513.524,8.639 C513.524,4.910 516.357,1.033 521.726,1.033 C522.024,1.033 522.173,1.033 522.472,1.033 C525.603,1.182 529.481,1.331 533.507,1.331 C538.429,1.331 543.499,1.182 547.526,1.033 C552.149,0.884 556.473,3.121 556.473,8.639 C556.473,12.516 553.640,16.393 547.973,16.393 C547.824,16.393 547.526,16.393 547.376,16.393 C546.929,16.393 546.482,16.393 546.034,16.393 C544.245,16.393 542.903,16.841 542.903,19.376 C542.903,22.508 542.903,25.490 542.903,28.324 C542.903,35.035 542.903,40.403 543.052,43.833 C543.052,45.325 543.499,46.965 547.376,46.965 C550.657,46.965 553.193,45.772 556.026,42.640 C578.246,18.332 578.545,17.288 578.545,16.692 C578.545,16.244 578.097,15.797 577.203,15.648 C573.176,14.902 571.088,11.770 571.088,8.490 C571.088,4.761 573.773,1.033 579.290,1.033 C579.439,1.033 579.589,1.033 579.887,1.033 C583.019,1.182 586.896,1.331 590.773,1.331 C595.695,1.331 600.616,1.182 604.643,1.033 C610.309,0.884 613.739,4.314 613.739,8.937 C613.739,12.814 611.055,16.543 605.388,16.543 C605.239,16.543 604.941,16.543 604.792,16.543 C604.493,16.543 604.195,16.543 603.897,16.543 C602.107,16.543 600.019,16.990 598.826,18.332 C591.072,27.280 576.755,41.596 567.658,51.141 C566.614,52.334 565.869,53.079 565.869,53.974 C565.869,54.720 566.316,55.316 567.062,56.211 C577.799,67.098 599.721,88.274 607.625,96.178 C608.818,97.222 610.757,97.819 611.950,97.819 C617.468,97.669 620.898,101.249 620.898,105.573 C620.898,109.451 618.064,113.328 612.397,113.328 ZM465.961,114.670 C444.635,114.670 428.380,99.459 428.380,76.940 C428.380,55.167 444.635,39.210 465.961,39.210 C487.286,39.210 503.393,55.167 503.393,76.940 C503.393,99.459 487.286,114.670 465.961,114.670 ZM465.961,52.781 C453.732,52.781 443.442,62.176 443.442,76.940 C443.442,91.555 453.583,100.801 465.961,100.801 C478.339,100.801 488.330,91.555 488.330,76.940 C488.330,62.176 478.190,52.781 465.961,52.781 ZM411.685,113.328 C411.685,113.328 411.536,113.328 411.387,113.328 C408.405,113.179 403.632,113.179 399.159,113.179 C396.027,113.179 393.044,113.179 391.255,113.328 C383.202,113.775 383.202,106.916 383.202,106.468 C383.202,102.889 385.737,99.310 390.658,99.310 C390.807,99.310 391.106,99.310 391.255,99.310 C391.404,99.310 391.553,99.310 391.851,99.310 C393.342,99.310 393.939,98.713 393.939,97.073 C393.939,92.450 394.088,87.230 394.088,82.458 C394.088,75.449 393.939,69.335 393.790,66.799 C393.193,56.659 386.781,52.483 379.921,52.483 C371.271,52.483 361.727,59.045 361.279,68.440 C361.130,71.124 361.130,75.151 361.130,80.072 C361.130,84.993 361.130,90.959 361.279,97.669 C361.279,99.310 362.323,99.310 363.815,99.310 C370.376,99.012 372.017,103.486 372.017,106.170 C372.017,109.749 369.332,113.328 364.113,113.328 C363.964,113.328 363.964,113.328 363.815,113.328 C360.832,113.179 356.060,113.179 351.586,113.179 C348.454,113.179 345.472,113.179 343.682,113.328 C335.629,113.775 335.629,106.916 335.629,106.468 C335.629,102.889 338.164,99.310 343.086,99.310 C343.235,99.310 343.533,99.310 343.682,99.310 C343.980,99.310 344.129,99.310 344.428,99.310 C345.770,99.310 346.217,98.862 346.217,97.222 C346.516,82.011 346.665,62.922 346.665,45.623 C346.665,36.377 346.665,27.727 346.516,20.420 C346.516,17.736 345.621,16.543 342.489,16.543 C340.103,16.543 334.138,16.393 334.138,8.788 C334.138,4.910 336.375,1.033 340.998,1.033 C341.147,1.033 341.296,1.033 341.445,1.033 C343.235,1.182 344.726,1.182 346.217,1.182 C354.419,1.331 361.727,4.910 361.876,13.858 C361.876,17.288 362.025,20.569 362.025,23.552 C362.025,33.245 361.727,40.851 361.578,44.728 C361.578,45.325 361.578,45.623 361.876,45.623 C362.025,45.623 362.174,45.474 362.622,45.176 C367.394,41.447 374.999,38.912 382.754,38.912 C395.430,38.912 408.405,45.623 409.001,64.563 C409.150,70.528 409.449,86.037 409.449,97.222 C409.449,98.862 410.492,99.310 411.387,99.310 C416.905,99.310 419.739,102.889 419.739,106.468 C419.739,109.898 417.054,113.328 411.685,113.328 ZM290.899,114.670 C269.573,114.670 253.318,99.459 253.318,76.940 C253.318,55.167 269.573,39.210 290.899,39.210 C312.225,39.210 328.331,55.167 328.331,76.940 C328.331,99.459 312.225,114.670 290.899,114.670 ZM290.899,52.781 C278.670,52.781 268.380,62.176 268.380,76.940 C268.380,91.555 278.521,100.801 290.899,100.801 C303.277,100.801 313.269,91.555 313.269,76.940 C313.269,62.176 303.128,52.781 290.899,52.781 ZM242.887,16.990 C242.738,16.990 242.439,16.990 242.290,16.990 C241.843,16.990 241.246,16.990 240.799,16.990 C238.860,16.990 237.667,17.437 237.518,20.271 C237.369,30.113 237.220,39.956 237.220,50.246 C237.220,60.536 237.369,71.124 237.518,82.756 C237.518,83.055 237.518,83.502 237.518,83.800 C237.518,104.231 222.903,114.670 205.306,114.670 C195.612,114.670 185.770,112.881 185.770,103.933 C185.770,99.757 188.603,95.880 193.823,95.880 C195.016,95.880 196.358,96.029 197.700,96.476 C200.534,97.371 203.218,97.669 205.604,97.669 C214.701,97.669 220.815,92.152 221.114,81.712 C221.412,69.633 221.561,58.597 221.561,47.860 C221.561,38.614 221.412,29.517 221.114,20.271 C221.114,18.332 220.368,16.841 218.280,16.841 C218.131,16.841 218.131,16.841 217.982,16.841 L215.596,16.990 C213.359,17.139 206.648,15.946 206.648,9.086 C206.648,5.060 209.481,1.182 214.850,1.182 C215.148,1.182 215.298,1.182 215.596,1.182 C218.728,1.331 222.903,1.480 227.228,1.480 C232.597,1.480 238.264,1.331 242.290,1.182 C242.439,1.182 242.439,1.182 242.588,1.182 C248.554,1.182 251.387,5.060 251.387,9.086 C251.387,12.963 248.404,16.990 242.887,16.990 Z" class="cls-1"/>
    <path d="M1262.640,113.053 C1260.254,113.053 1257.943,111.264 1255.632,107.537 C1250.414,111.637 1245.121,112.755 1244.673,112.755 C1243.630,112.755 1242.959,111.935 1242.959,111.115 C1242.959,110.444 1243.331,109.848 1244.226,109.624 C1248.550,108.506 1251.681,106.791 1254.141,104.779 C1252.128,100.604 1251.085,95.833 1250.488,90.763 L1239.977,90.838 L1239.977,96.951 C1242.213,96.504 1244.301,95.907 1246.090,95.311 C1246.239,95.236 1246.388,95.236 1246.537,95.236 C1247.357,95.236 1247.879,95.982 1247.879,96.727 C1247.879,97.771 1247.506,98.293 1239.977,100.007 L1239.977,101.797 L1240.051,107.910 L1240.051,108.059 C1240.051,110.519 1238.635,113.426 1233.267,113.426 C1230.285,113.426 1227.974,113.053 1227.974,111.264 C1227.974,110.444 1228.571,109.550 1229.689,109.550 C1229.838,109.550 1229.987,109.624 1230.136,109.624 C1231.404,109.922 1232.447,110.072 1233.416,110.072 C1235.504,110.072 1236.697,109.251 1236.697,107.239 L1236.697,100.678 C1234.833,101.051 1229.763,101.797 1228.943,101.797 C1227.825,101.797 1227.303,101.051 1227.303,100.231 C1227.303,99.486 1227.751,98.740 1228.720,98.665 C1231.404,98.367 1234.087,97.995 1236.697,97.547 L1236.697,90.838 L1228.496,90.912 C1227.452,90.912 1226.931,90.167 1226.931,89.496 C1226.931,88.750 1227.452,88.005 1228.496,88.005 L1236.622,88.005 L1236.622,82.861 C1233.789,83.308 1231.329,83.607 1230.434,83.607 L1230.360,83.607 C1229.391,83.607 1228.943,82.861 1228.943,82.116 C1228.943,81.445 1229.316,80.774 1230.136,80.774 C1234.385,80.550 1238.858,79.804 1243.480,78.463 C1243.630,78.388 1243.779,78.388 1243.928,78.388 C1244.748,78.388 1245.419,79.208 1245.419,79.954 C1245.419,81.146 1244.524,81.370 1239.977,82.265 L1239.977,88.005 L1250.264,87.930 C1250.190,87.110 1249.892,82.637 1249.892,80.401 C1249.892,79.357 1250.786,78.761 1251.681,78.761 C1252.650,78.761 1253.545,79.357 1253.545,80.625 C1253.545,82.936 1253.545,85.470 1253.694,87.930 L1265.845,87.781 C1266.814,87.781 1267.336,88.527 1267.336,89.198 C1267.336,89.943 1266.814,90.689 1265.845,90.689 L1253.843,90.763 C1254.216,94.863 1254.961,98.889 1256.601,102.467 C1258.539,100.156 1259.881,97.547 1261.000,94.863 C1261.223,94.267 1261.745,93.969 1262.267,93.969 C1263.162,93.969 1264.205,94.714 1264.205,95.684 C1264.205,96.504 1262.118,101.275 1258.092,105.300 C1259.210,106.866 1261.149,109.624 1262.863,109.624 C1264.653,109.624 1265.473,106.419 1266.143,104.480 C1266.367,103.958 1266.814,103.660 1267.336,103.660 C1268.231,103.660 1269.200,104.331 1269.200,105.300 C1269.200,106.344 1267.262,113.053 1262.640,113.053 ZM1265.323,83.383 C1265.323,84.277 1264.429,85.172 1263.609,85.172 C1263.311,85.172 1263.087,85.023 1262.863,84.799 C1261.372,83.010 1258.763,81.370 1256.825,80.401 C1256.452,80.177 1256.228,79.879 1256.228,79.506 C1256.228,78.835 1256.899,78.164 1257.794,78.164 C1258.987,78.164 1265.323,81.445 1265.323,83.383 ZM1266.143,75.779 L1229.465,75.779 C1228.496,75.779 1228.049,75.033 1228.049,74.288 C1228.049,73.617 1228.496,72.871 1229.465,72.871 L1245.046,72.946 L1245.046,67.727 L1232.820,67.802 C1231.851,67.802 1231.404,67.057 1231.404,66.386 C1231.404,65.640 1231.851,64.969 1232.820,64.969 L1245.046,65.044 L1245.046,60.049 L1230.956,60.123 C1229.987,60.123 1229.465,59.378 1229.465,58.707 C1229.465,57.962 1229.987,57.291 1230.956,57.291 L1240.126,57.291 C1239.902,57.141 1239.678,56.918 1239.529,56.620 C1238.486,54.532 1237.666,53.414 1235.951,51.699 C1235.653,51.401 1235.504,51.028 1235.504,50.730 C1235.504,49.910 1236.473,49.239 1237.442,49.239 C1238.933,49.239 1242.884,53.861 1242.884,55.576 C1242.884,56.321 1242.437,56.992 1241.840,57.291 L1249.892,57.291 C1251.308,54.980 1252.725,52.147 1253.619,49.985 C1253.917,49.239 1254.514,48.941 1255.185,48.941 C1256.228,48.941 1257.496,49.836 1257.496,50.879 C1257.496,51.774 1254.365,56.172 1253.545,57.291 L1264.280,57.291 C1265.249,57.291 1265.696,57.962 1265.696,58.707 C1265.696,59.378 1265.249,60.123 1264.280,60.123 L1248.923,60.049 L1248.923,65.044 L1261.372,64.969 C1262.267,64.969 1262.714,65.640 1262.714,66.386 C1262.714,67.057 1262.267,67.802 1261.372,67.802 L1248.923,67.727 L1248.923,72.946 L1266.143,72.871 C1267.038,72.871 1267.485,73.617 1267.485,74.288 C1267.485,75.033 1267.038,75.779 1266.143,75.779 ZM1224.918,65.640 L1205.088,65.640 C1203.895,65.640 1203.298,64.746 1203.298,63.925 C1203.298,63.031 1203.895,62.136 1205.088,62.136 L1224.918,62.136 C1226.111,62.136 1226.707,63.031 1226.707,63.851 C1226.707,64.746 1226.111,65.640 1224.918,65.640 ZM1222.756,55.278 L1208.219,55.278 C1207.026,55.278 1206.429,54.458 1206.429,53.638 C1206.429,52.743 1207.026,51.923 1208.219,51.923 L1222.756,51.923 C1223.949,51.923 1224.470,52.743 1224.470,53.563 C1224.470,54.458 1223.949,55.278 1222.756,55.278 ZM1175.480,78.239 C1172.498,78.239 1158.110,66.535 1149.388,56.769 C1148.195,55.427 1147.226,54.756 1146.257,54.756 C1145.362,54.756 1144.468,55.427 1143.424,56.769 C1135.075,67.429 1119.941,80.252 1116.884,80.252 C1115.617,80.252 1114.648,79.208 1114.648,78.090 C1114.648,77.344 1115.095,76.599 1116.064,76.077 C1125.159,71.380 1134.925,61.465 1140.740,53.861 C1142.231,51.923 1144.095,50.879 1146.033,50.879 C1147.822,50.879 1149.761,51.848 1151.624,53.787 C1159.079,61.838 1167.503,69.293 1176.673,73.990 C1177.568,74.437 1177.940,75.108 1177.940,75.853 C1177.940,77.046 1176.897,78.239 1175.480,78.239 ZM1088.097,111.488 C1086.383,111.488 1081.015,107.835 1076.989,102.989 C1073.187,108.282 1068.640,111.786 1067.223,111.786 C1066.105,111.786 1065.211,110.892 1065.211,109.922 C1065.211,109.326 1065.509,108.730 1066.254,108.282 C1069.684,106.195 1072.442,103.288 1074.678,100.082 C1069.460,92.702 1067.074,84.054 1067.074,83.085 C1067.074,81.966 1068.043,81.445 1068.938,81.445 C1069.609,81.445 1070.280,81.817 1070.429,82.414 C1071.771,88.005 1073.784,92.851 1076.617,96.951 C1079.077,92.552 1081.388,85.172 1081.388,80.997 C1081.388,79.059 1081.015,78.984 1074.678,78.984 C1070.653,78.984 1065.509,78.984 1063.347,79.059 L1063.347,111.637 C1063.347,112.979 1062.378,113.650 1061.334,113.650 C1060.365,113.650 1059.396,112.979 1059.396,111.712 C1059.396,111.712 1059.470,66.833 1059.619,58.782 C1059.694,55.576 1061.483,52.743 1066.478,52.519 C1068.267,52.445 1070.429,52.370 1072.665,52.370 C1074.827,52.370 1077.138,52.445 1079.226,52.519 C1083.922,52.669 1085.637,55.203 1085.637,58.483 C1085.637,66.087 1084.146,69.964 1077.213,69.964 C1075.722,69.964 1073.933,69.740 1071.771,69.218 C1070.802,68.995 1070.354,68.249 1070.354,67.429 C1070.354,66.535 1070.951,65.640 1071.995,65.640 C1072.218,65.640 1072.367,65.640 1072.591,65.715 C1074.380,66.162 1075.871,66.386 1077.064,66.386 C1080.419,66.386 1081.761,64.895 1081.761,59.825 C1081.761,55.800 1081.164,55.800 1073.113,55.800 C1071.100,55.800 1068.938,55.800 1067.522,55.874 C1064.465,55.949 1063.347,57.812 1063.347,59.825 L1063.347,75.779 C1066.478,75.704 1075.498,75.630 1079.599,75.630 C1083.848,75.630 1085.264,77.195 1085.264,80.252 C1085.264,83.383 1083.550,92.031 1078.928,99.933 C1081.686,103.138 1085.115,105.748 1089.215,107.835 C1089.886,108.208 1090.185,108.804 1090.185,109.401 C1090.185,110.444 1089.365,111.488 1088.097,111.488 ZM1054.475,87.558 L1042.622,87.483 L1042.697,95.907 L1052.984,95.833 C1054.103,95.833 1054.625,96.653 1054.625,97.473 C1054.625,98.367 1054.103,99.187 1052.984,99.187 L1042.697,99.113 L1042.697,111.861 C1042.697,113.128 1041.728,113.799 1040.758,113.799 C1039.789,113.799 1038.820,113.128 1038.820,111.861 L1038.895,99.113 L1028.681,99.187 C1027.489,99.187 1026.892,98.367 1026.892,97.547 C1026.892,96.653 1027.489,95.833 1028.681,95.833 L1038.895,95.907 L1038.895,87.483 L1027.190,87.558 C1025.998,87.558 1025.476,86.812 1025.476,85.992 C1025.476,85.172 1026.072,84.352 1027.190,84.352 L1041.728,84.352 C1041.728,84.277 1041.802,84.203 1041.877,84.128 C1043.815,81.295 1045.828,77.121 1047.170,73.244 C1047.393,72.573 1048.064,72.275 1048.661,72.275 C1049.704,72.275 1050.748,72.946 1050.748,74.064 C1050.748,75.481 1047.319,81.445 1045.306,84.352 L1054.475,84.352 C1055.594,84.352 1056.116,85.172 1056.116,85.918 C1056.116,86.738 1055.594,87.558 1054.475,87.558 ZM1038.224,80.252 C1038.224,81.370 1037.180,82.190 1036.211,82.190 C1035.614,82.190 1035.093,81.892 1034.794,81.221 C1033.602,78.463 1032.185,76.823 1030.769,74.884 C1030.620,74.661 1030.545,74.511 1030.545,74.288 C1030.545,73.542 1031.440,72.797 1032.409,72.797 C1034.273,72.797 1038.224,78.686 1038.224,80.252 ZM1054.475,70.486 L1040.684,70.411 L1027.190,70.486 C1025.998,70.486 1025.476,69.666 1025.476,68.920 C1025.476,68.026 1026.072,67.206 1027.190,67.206 L1038.895,67.280 L1038.895,59.751 L1029.800,59.825 C1028.607,59.825 1028.085,59.005 1028.085,58.260 C1028.085,57.365 1028.681,56.545 1029.800,56.545 L1038.820,56.620 L1038.820,51.252 C1038.820,50.059 1039.789,49.463 1040.758,49.463 C1041.728,49.463 1042.697,50.059 1042.697,51.252 L1042.697,56.620 L1051.792,56.545 C1052.910,56.545 1053.506,57.365 1053.506,58.185 C1053.506,59.005 1052.910,59.825 1051.792,59.825 L1042.697,59.751 L1042.622,67.280 L1054.475,67.206 C1055.594,67.206 1056.116,68.026 1056.116,68.846 C1056.116,69.666 1055.594,70.486 1054.475,70.486 ZM998.701,75.704 L958.370,75.704 C957.252,75.704 956.656,74.884 956.656,74.139 C956.656,73.319 957.252,72.573 958.296,72.573 L976.113,72.648 L976.113,66.907 L963.514,66.982 C962.396,66.982 961.874,66.237 961.874,65.491 C961.874,64.746 962.470,63.925 963.514,63.925 L976.113,64.000 L976.113,59.005 L960.830,59.005 C959.712,59.005 959.190,58.260 959.190,57.514 C959.190,56.620 959.787,55.800 960.905,55.800 L976.113,55.800 L976.113,50.805 C976.113,49.537 977.082,48.941 978.051,48.941 C979.020,48.941 979.989,49.537 979.989,50.805 L979.989,55.800 L996.092,55.800 C997.210,55.800 997.732,56.620 997.732,57.365 C997.732,58.185 997.210,59.005 996.092,59.005 L979.989,59.005 L979.989,64.000 L992.365,63.925 C993.408,63.925 993.930,64.671 993.930,65.416 C993.930,66.237 993.408,66.982 992.365,66.982 L979.915,66.907 L979.915,72.648 L998.701,72.573 C999.745,72.573 1000.267,73.319 1000.267,74.139 C1000.267,74.884 999.745,75.704 998.701,75.704 ZM957.103,70.262 C956.506,70.262 955.910,69.964 955.612,69.218 C954.344,66.535 951.959,63.776 951.064,62.807 C950.766,62.509 950.692,62.211 950.692,61.913 C950.692,61.093 951.586,60.347 952.481,60.347 C954.270,60.347 959.041,66.460 959.041,68.175 C959.041,69.368 958.072,70.262 957.103,70.262 ZM947.262,113.650 C946.293,113.650 945.249,113.053 945.249,111.861 L945.249,51.774 C945.249,50.507 946.293,49.910 947.262,49.910 C948.306,49.910 949.275,50.507 949.275,51.774 L949.275,111.861 C949.275,113.053 948.306,113.650 947.262,113.650 ZM935.558,81.370 C934.589,81.370 933.694,80.699 933.694,79.655 C933.694,79.283 933.843,78.835 934.142,78.314 C936.229,74.884 937.347,70.113 937.347,65.938 C937.347,64.746 938.167,64.224 938.987,64.224 C939.733,64.224 941.000,64.522 941.000,66.460 C941.000,69.666 939.062,81.370 935.558,81.370 ZM970.298,80.252 C972.758,80.177 975.293,80.103 977.902,80.103 C980.511,80.103 983.121,80.177 985.581,80.252 C990.352,80.401 992.663,82.488 992.737,85.843 C992.737,86.887 992.812,97.622 992.886,100.007 C992.961,102.542 992.961,104.182 992.961,106.270 L992.961,106.568 C992.961,109.773 991.843,113.426 985.059,113.426 C981.331,113.426 978.498,112.979 978.498,111.041 C978.498,110.146 979.169,109.251 980.213,109.251 C980.362,109.251 980.511,109.326 980.660,109.326 C982.300,109.624 983.791,109.848 984.984,109.848 C987.519,109.848 989.010,108.879 989.084,105.822 L989.084,100.678 L966.943,100.678 C966.943,104.853 967.018,109.028 967.092,112.532 L967.092,112.606 C967.092,113.724 966.198,114.321 965.229,114.321 C964.260,114.321 963.216,113.650 963.216,112.457 C963.216,108.357 963.141,103.809 963.141,99.262 C963.141,94.714 963.216,90.167 963.216,86.216 C963.216,82.637 965.080,80.401 970.298,80.252 ZM988.861,86.514 C988.786,84.725 987.892,83.308 984.835,83.234 C982.748,83.159 980.139,83.159 977.678,83.159 C975.218,83.159 972.833,83.159 971.044,83.234 C967.987,83.308 967.092,84.799 967.092,86.514 L967.018,89.049 L988.935,89.049 C988.935,88.154 988.861,87.334 988.861,86.514 ZM966.943,97.771 L989.084,97.771 C989.084,95.833 989.010,93.894 989.010,91.956 L966.943,91.956 L966.943,97.771 ZM1135.000,74.959 C1133.807,74.959 1133.211,74.064 1133.211,73.170 C1133.211,72.275 1133.807,71.380 1135.000,71.380 L1158.408,71.380 C1159.601,71.380 1160.198,72.275 1160.198,73.170 C1160.198,74.064 1159.601,74.959 1158.334,74.959 L1135.000,74.959 ZM1120.090,87.185 C1120.090,86.216 1120.761,85.247 1121.954,85.247 L1170.336,85.247 C1171.604,85.247 1172.275,86.141 1172.275,87.036 C1172.275,88.005 1171.604,88.900 1170.336,88.900 L1143.051,88.750 C1141.486,93.969 1138.951,101.126 1136.342,106.717 C1145.213,105.897 1153.936,104.779 1162.360,103.288 C1159.825,100.827 1157.067,98.665 1154.308,96.653 C1153.786,96.280 1153.488,95.758 1153.488,95.311 C1153.488,94.491 1154.383,93.671 1155.501,93.671 C1158.707,93.671 1172.796,106.791 1172.796,110.221 C1172.796,111.563 1171.604,112.457 1170.485,112.457 C1169.889,112.457 1169.293,112.159 1168.845,111.488 C1167.653,109.550 1166.385,107.760 1164.969,106.120 C1148.344,109.699 1126.650,111.413 1123.147,111.413 C1122.028,111.413 1121.432,110.444 1121.432,109.475 C1121.432,108.506 1121.954,107.611 1122.998,107.611 C1126.054,107.462 1129.111,107.239 1132.093,107.015 C1134.627,101.797 1137.087,94.416 1138.578,88.750 L1121.879,88.900 C1120.687,88.900 1120.090,88.005 1120.090,87.185 ZM1222.308,75.481 L1208.368,75.481 C1207.250,75.481 1206.653,74.586 1206.653,73.766 C1206.653,72.871 1207.250,72.051 1208.368,72.051 L1222.308,72.051 C1223.501,72.051 1224.023,72.871 1224.023,73.766 C1224.023,74.586 1223.501,75.481 1222.308,75.481 ZM1222.308,85.247 L1208.368,85.247 C1207.250,85.247 1206.653,84.352 1206.653,83.532 C1206.653,82.637 1207.250,81.817 1208.368,81.817 L1222.308,81.817 C1223.501,81.817 1224.023,82.637 1224.023,83.532 C1224.023,84.352 1223.501,85.247 1222.308,85.247 ZM1210.753,91.583 C1212.095,91.509 1213.586,91.434 1215.152,91.434 C1216.717,91.434 1218.208,91.509 1219.476,91.583 C1222.308,91.732 1224.545,93.447 1224.620,96.056 C1224.694,97.995 1224.769,100.082 1224.769,102.169 C1224.769,109.773 1224.694,112.010 1215.524,112.010 C1210.604,112.010 1205.908,112.010 1205.759,107.090 C1205.684,104.928 1205.684,102.766 1205.684,100.753 C1205.684,99.262 1205.684,97.845 1205.759,96.429 C1205.908,93.820 1207.771,91.732 1210.753,91.583 ZM1209.188,106.120 C1209.262,108.431 1210.679,108.804 1215.674,108.804 C1221.265,108.804 1221.265,107.984 1221.265,102.542 C1221.265,100.753 1221.265,98.815 1221.190,97.547 C1221.116,94.565 1219.028,94.565 1215.226,94.565 C1209.113,94.565 1209.113,94.863 1209.113,101.797 C1209.113,103.362 1209.188,104.928 1209.188,106.120 Z" class="cls-1"/>
  </g>
</svg>
